<svg xmlns="http://www.w3.org/2000/svg" enable-background="new 0 0 2000 2000" viewBox="0 0 2000 2000"><path fill="#eaeaea" fill-rule="evenodd" d="M221.64,1147.38c-46.19,53.92-68.29,129.08-53.55,205.62c21.71,112.76,116.19,191.34,222.27,193.09l0.01,0.01
			l0.23-0.01c10.65,0.16,21.42-0.45,32.24-1.88c208.93-16.3,366.09-106.42,767.06,15.05l0.01-0.01
			c77.35,25.76,162.64,32.16,248.92,14.55c261.4-53.33,432.86-306.6,382.98-565.69c-35.43-184.03-173.02-321.46-343.43-366.56
			l0-0.04c-126.12-35.61-333.74-17.36-529.56-80.81c-169.87-55.04-293.17-218.88-471.87-184.15c-4.72,0.73-9.45,1.57-14.19,2.54
			c-150.55,30.72-250.13,172.23-222.44,316.08c1.77,9.18,4.01,18.14,6.7,26.88l-0.01,0c50.68,164.16,42.22,305.94-25.38,425.31
			L221.64,1147.38z" class="colorede4f1 svgShape" clip-rule="evenodd"/><ellipse cx="621.36" cy="1623.6" fill="#d4d4d4" fill-rule="evenodd" class="colord1c6e2 svgShape" clip-rule="evenodd" rx="449.16" ry="72.48"/><path fill="#4c4c4c" fill-rule="evenodd" d="M633.5,305.17l448.86,74.85c22.76,3.79,41.34,25.15,41.34,48.34v639.44c0,24.36-20.42,41.03-44.29,37.05
			l-448.86-74.85c-22.76-3.79-41.34-25.15-41.34-48.34V342.22C589.21,317.85,609.63,301.19,633.5,305.17z" class="color2b2870 svgShape" clip-rule="evenodd"/><path fill="#d8d8d8" fill-rule="evenodd" d="M632.03,314.01l448.86,74.85c18.62,3.1,33.85,20.88,33.85,39.5v639.44c0,18.62-15.23,31.31-33.85,28.21
			l-448.86-74.85c-18.62-3.11-33.85-20.88-33.85-39.5V342.22C598.18,323.6,613.41,310.9,632.03,314.01z" class="colord7cce5 svgShape" clip-rule="evenodd"/><path fill="#4c4c4c" fill-rule="evenodd" d="M856.46,383.1c46.39,7.74,84,51.62,84,98.01c0,46.39-37.61,77.73-84,70c-46.39-7.74-84-51.62-84-98.01
			C772.45,406.7,810.06,375.36,856.46,383.1z" class="color2b2870 svgShape" clip-rule="evenodd"/><path fill="#eaeaea" fill-rule="evenodd" d="M856.46,392.09c41.43,6.91,75.01,46.1,75.01,87.53c0,41.43-33.59,69.41-75.01,62.5
			c-41.43-6.91-75.02-46.09-75.02-87.52C781.44,413.17,815.03,385.18,856.46,392.09z" class="colorede4f1 svgShape" clip-rule="evenodd"/><path fill="#4c4c4c" fill-rule="evenodd" d="M835.3,472.38l10.32,1.72c-10.29-5.97-17.54-17.32-17.54-29.15c0-15.67,12.7-26.25,28.37-23.64
			c15.67,2.61,28.37,17.43,28.37,33.1c0,11.83-7.25,20.76-17.54,23.3l10.32,1.72c14.46,2.41,26.3,16.22,26.3,30.68v22.99
			c-12.93,8.42-29.45,12.01-47.45,9c-18-3-34.52-12.1-47.45-24.83V494.3C809.01,479.83,820.84,469.97,835.3,472.38z" class="color2b2870 svgShape" clip-rule="evenodd"/><path fill="#a4a4a4" fill-rule="evenodd" d="M721.61,564.98l269.69,44.97c7.38,1.23,13.42,8.44,13.42,16.03l0,0c0,7.59-6.04,12.79-13.42,11.55
			l-269.69-44.97c-7.38-1.23-13.42-8.44-13.42-16.03v0C708.2,568.95,714.23,563.75,721.61,564.98z" class="color9488c0 svgShape" clip-rule="evenodd"/><path fill="#a4a4a4" fill-rule="evenodd" d="M672.53,646.32c7.68,1.28,13.91,8.55,13.91,16.23c0,7.69-6.23,12.87-13.91,11.59
			c-7.68-1.28-13.91-8.55-13.91-16.23C658.61,650.23,664.84,645.04,672.53,646.32L672.53,646.32z M672.53,942.25
			c7.68,1.28,13.91,8.55,13.91,16.23c0,7.69-6.23,12.87-13.91,11.59c-7.68-1.28-13.91-8.55-13.91-16.23
			C658.61,946.16,664.84,940.97,672.53,942.25L672.53,942.25z M727.82,951.6l312.69,52.15c7.59,1.26,13.79,8.51,13.79,16.09l0,0
			c0,7.59-6.21,12.76-13.79,11.49l-312.69-52.14c-7.59-1.26-13.79-8.51-13.79-16.09l0,0C714.03,955.5,720.23,950.33,727.82,951.6
			L727.82,951.6z M672.53,883.07c7.68,1.28,13.91,8.55,13.91,16.23c0,7.69-6.23,12.87-13.91,11.59
			c-7.68-1.28-13.91-8.55-13.91-16.23C658.61,886.98,664.84,881.79,672.53,883.07L672.53,883.07z M727.82,892.41
			c-7.59-1.26-13.79,3.91-13.79,11.49l0,0c0,7.59,6.2,14.83,13.79,16.09l312.69,52.14c7.59,1.26,13.79-3.91,13.79-11.49l0,0
			c0-7.59-6.21-14.83-13.79-16.09L727.82,892.41L727.82,892.41z M672.53,823.88c7.68,1.28,13.91,8.55,13.91,16.23
			c0,7.68-6.23,12.87-13.91,11.59c-7.68-1.28-13.91-8.55-13.91-16.23C658.61,827.79,664.84,822.6,672.53,823.88L672.53,823.88z
			 M727.82,833.22l312.69,52.14c7.59,1.26,13.79,8.51,13.79,16.09l0,0c0,7.59-6.21,12.76-13.79,11.49l-312.69-52.14
			c-7.59-1.27-13.79-8.51-13.79-16.09l0,0C714.03,837.13,720.23,831.96,727.82,833.22L727.82,833.22z M672.53,764.7
			c7.68,1.28,13.91,8.55,13.91,16.23c0,7.68-6.23,12.87-13.91,11.59c-7.68-1.28-13.91-8.55-13.91-16.23
			C658.61,768.6,664.84,763.41,672.53,764.7L672.53,764.7z M727.82,774.04c-7.59-1.27-13.79,3.91-13.79,11.49l0,0
			c0,7.59,6.2,14.83,13.79,16.09l312.69,52.15c7.59,1.26,13.79-3.91,13.79-11.49l0,0c0-7.59-6.21-14.83-13.79-16.09L727.82,774.04
			L727.82,774.04z M672.53,705.51c7.68,1.28,13.91,8.55,13.91,16.23c0,7.69-6.23,12.87-13.91,11.59
			c-7.68-1.28-13.91-8.55-13.91-16.23C658.61,709.42,664.84,704.23,672.53,705.51L672.53,705.51z M727.82,714.85L1040.51,767
			c7.59,1.26,13.79,8.51,13.79,16.09l0,0c0,7.59-6.21,12.76-13.79,11.49l-312.69-52.14c-7.59-1.26-13.79-8.51-13.79-16.09l0,0
			C714.03,718.76,720.23,713.59,727.82,714.85L727.82,714.85z M727.82,655.67c-7.59-1.27-13.79,3.91-13.79,11.49l0,0
			c0,7.59,6.2,14.83,13.79,16.09l312.69,52.14c7.59,1.26,13.79-3.91,13.79-11.49l0,0c0-7.59-6.21-14.83-13.79-16.09L727.82,655.67z" class="color9488c0 svgShape" clip-rule="evenodd"/><path fill="#4c4c4c" fill-rule="evenodd" d="M1246.49,405.21l448.86,74.85c22.76,3.79,41.34,25.15,41.34,48.34v639.44c0,24.36-20.42,41.03-44.29,37.05
			l-448.86-74.85c-22.75-3.79-41.34-25.15-41.34-48.34V442.25C1202.2,417.89,1222.62,401.22,1246.49,405.21z" class="color2b2870 svgShape" clip-rule="evenodd"/><path fill="#d8d8d8" fill-rule="evenodd" d="M1245.02,414.05l448.86,74.85c18.62,3.1,33.85,20.88,33.85,39.5v639.44c0,18.62-15.23,31.31-33.85,28.21
			l-448.86-74.85c-18.62-3.1-33.85-20.88-33.85-39.5V442.26C1211.16,423.64,1226.4,410.94,1245.02,414.05z" class="colord7cce5 svgShape" clip-rule="evenodd"/><path fill="#a4a4a4" fill-rule="evenodd" d="M1334.6,665.02L1604.29,710c7.38,1.23,13.42,8.44,13.42,16.03v0c0,7.59-6.04,12.78-13.42,11.55l-269.69-44.97
			c-7.38-1.23-13.42-8.44-13.42-16.03v0C1321.18,668.99,1327.22,663.79,1334.6,665.02z" class="color9488c0 svgShape" clip-rule="evenodd"/><path fill="#a4a4a4" fill-rule="evenodd" d="M1285.51,746.36c7.69,1.28,13.91,8.55,13.91,16.23c0,7.69-6.23,12.87-13.91,11.59
			c-7.68-1.28-13.91-8.55-13.91-16.23C1271.6,750.27,1277.83,745.08,1285.51,746.36L1285.51,746.36z M1285.51,1042.29
			c7.69,1.28,13.91,8.55,13.91,16.23c0,7.68-6.23,12.87-13.91,11.59c-7.68-1.28-13.91-8.55-13.91-16.23
			C1271.6,1046.2,1277.83,1041.01,1285.51,1042.29L1285.51,1042.29z M1340.81,1051.64l312.69,52.14
			c7.59,1.26,13.79,8.51,13.79,16.09l0,0c0,7.59-6.21,12.76-13.79,11.49l-312.69-52.15c-7.59-1.26-13.79-8.51-13.79-16.09l0,0
			C1327.02,1055.54,1333.22,1050.37,1340.81,1051.64L1340.81,1051.64z M1285.51,983.11c7.69,1.28,13.91,8.55,13.91,16.23
			c0,7.69-6.23,12.87-13.91,11.59c-7.68-1.28-13.91-8.55-13.91-16.23C1271.6,987.02,1277.83,981.83,1285.51,983.11L1285.51,983.11z
			 M1340.81,992.45c-7.59-1.27-13.79,3.91-13.79,11.49l0,0c0,7.59,6.21,14.83,13.79,16.09l312.69,52.14
			c7.59,1.27,13.79-3.91,13.79-11.49l0,0c0-7.59-6.21-14.83-13.79-16.09L1340.81,992.45L1340.81,992.45z M1285.51,923.92
			c7.69,1.28,13.91,8.55,13.91,16.23c0,7.69-6.23,12.87-13.91,11.59c-7.68-1.28-13.91-8.55-13.91-16.23
			C1271.6,927.83,1277.83,922.64,1285.51,923.92L1285.51,923.92z M1340.81,933.26l312.69,52.14c7.59,1.27,13.79,8.51,13.79,16.09
			l0,0c0,7.59-6.21,12.76-13.79,11.49l-312.69-52.14c-7.59-1.26-13.79-8.51-13.79-16.09l0,0
			C1327.02,937.17,1333.22,932,1340.81,933.26L1340.81,933.26z M1285.51,864.74c7.69,1.28,13.91,8.55,13.91,16.23
			c0,7.68-6.23,12.87-13.91,11.59c-7.68-1.28-13.91-8.55-13.91-16.23C1271.6,868.64,1277.83,863.45,1285.51,864.74L1285.51,864.74z
			 M1340.81,874.08c-7.59-1.27-13.79,3.91-13.79,11.49l0,0c0,7.59,6.21,14.83,13.79,16.09l312.69,52.14
			c7.59,1.26,13.79-3.91,13.79-11.49l0,0c0-7.59-6.21-14.83-13.79-16.09L1340.81,874.08L1340.81,874.08z M1285.51,805.55
			c7.69,1.28,13.91,8.55,13.91,16.23c0,7.68-6.23,12.87-13.91,11.59c-7.68-1.28-13.91-8.55-13.91-16.23
			C1271.6,809.46,1277.83,804.27,1285.51,805.55L1285.51,805.55z M1340.81,814.89l312.69,52.15c7.59,1.27,13.79,8.51,13.79,16.09
			l0,0c0,7.59-6.21,12.76-13.79,11.49l-312.69-52.15c-7.59-1.27-13.79-8.51-13.79-16.09l0,0
			C1327.02,818.8,1333.22,813.63,1340.81,814.89L1340.81,814.89z M1340.81,755.71c-7.59-1.26-13.79,3.91-13.79,11.49l0,0
			c0,7.59,6.21,14.83,13.79,16.09l312.69,52.14c7.59,1.26,13.79-3.91,13.79-11.49l0,0c0-7.59-6.21-14.83-13.79-16.09L1340.81,755.71
			z" class="color9488c0 svgShape" clip-rule="evenodd"/><path fill="#4c4c4c" fill-rule="evenodd" d="M907.55,646.91l448.86,74.85c22.76,3.79,41.34,25.15,41.34,48.34v639.44c0,24.36-20.42,41.03-44.29,37.05
			l-448.86-74.85c-22.75-3.79-41.34-25.15-41.34-48.34V683.96C863.26,659.6,883.68,642.93,907.55,646.91z" class="color2b2870 svgShape" clip-rule="evenodd"/><path fill="#d8d8d8" fill-rule="evenodd" d="M906.07,655.76l448.86,74.85c18.62,3.11,33.85,20.88,33.85,39.5v639.44c0,18.62-15.23,31.31-33.85,28.21
			l-448.86-74.85c-18.62-3.11-33.85-20.88-33.85-39.5V683.96C872.22,665.35,887.46,652.65,906.07,655.76z" class="colord7cce5 svgShape" clip-rule="evenodd"/><path fill="#4c4c4c" fill-rule="evenodd" d="M1130.5,724.85c46.39,7.74,84,51.62,84,98.01c0,46.39-37.61,77.73-84,70c-46.39-7.74-84-51.62-84-98.01
			C1046.5,748.45,1084.11,717.11,1130.5,724.85z" class="color2b2870 svgShape" clip-rule="evenodd"/><path fill="#eaeaea" fill-rule="evenodd" d="M1130.5,733.84c41.43,6.91,75.01,46.09,75.01,87.52c0,41.43-33.58,69.42-75.01,62.5
			c-41.43-6.91-75.01-46.09-75.01-87.52C1055.49,754.91,1089.07,726.93,1130.5,733.84z" class="colorede4f1 svgShape" clip-rule="evenodd"/><path fill="#4c4c4c" fill-rule="evenodd" d="M1109.35,814.13l10.32,1.72c-10.29-5.97-17.54-17.32-17.54-29.15c0-15.67,12.7-26.25,28.37-23.64
			c15.67,2.61,28.37,17.43,28.37,33.1c0,11.83-7.25,20.76-17.54,23.3l10.32,1.72c14.46,2.41,26.3,16.22,26.3,30.68v22.99
			c-12.93,8.42-29.45,12.01-47.45,9c-18-3-34.52-12.1-47.45-24.83v-22.99C1083.05,821.58,1094.89,811.72,1109.35,814.13z" class="color2b2870 svgShape" clip-rule="evenodd"/><path fill="#a4a4a4" fill-rule="evenodd" d="M995.66,906.73l269.69,44.97c7.38,1.23,13.42,8.44,13.42,16.03v0c0,7.59-6.04,12.78-13.42,11.55
			l-269.69-44.97c-7.38-1.23-13.42-8.44-13.42-16.03l0,0C982.24,910.7,988.28,905.5,995.66,906.73z" class="color9488c0 svgShape" clip-rule="evenodd"/><path fill="#a4a4a4" fill-rule="evenodd" d="M946.57,988.07c7.68,1.28,13.91,8.55,13.91,16.23c0,7.69-6.23,12.87-13.91,11.59
			c-7.69-1.28-13.91-8.55-13.91-16.23C932.66,991.98,938.89,986.79,946.57,988.07L946.57,988.07z M946.57,1284
			c7.68,1.28,13.91,8.55,13.91,16.23c0,7.68-6.23,12.87-13.91,11.59c-7.69-1.28-13.91-8.55-13.91-16.23
			C932.66,1287.91,938.89,1282.72,946.57,1284L946.57,1284z M1001.87,1293.34l312.69,52.14c7.59,1.26,13.79,8.51,13.79,16.09l0,0
			c0,7.59-6.21,12.76-13.79,11.49l-312.69-52.14c-7.59-1.27-13.79-8.51-13.79-16.09l0,0
			C988.08,1297.25,994.28,1292.08,1001.87,1293.34L1001.87,1293.34z M946.57,1224.82c7.68,1.28,13.91,8.55,13.91,16.23
			c0,7.68-6.23,12.87-13.91,11.59c-7.69-1.28-13.91-8.55-13.91-16.23C932.66,1228.72,938.89,1223.53,946.57,1224.82L946.57,1224.82z
			 M1001.87,1234.16c-7.59-1.27-13.79,3.91-13.79,11.49l0,0c0,7.59,6.21,14.83,13.79,16.09l312.69,52.15
			c7.59,1.26,13.79-3.91,13.79-11.49l0,0c0-7.59-6.21-14.83-13.79-16.09L1001.87,1234.16L1001.87,1234.16z M946.57,1165.63
			c7.68,1.28,13.91,8.55,13.91,16.23c0,7.69-6.23,12.87-13.91,11.59c-7.69-1.28-13.91-8.55-13.91-16.23
			C932.66,1169.54,938.89,1164.35,946.57,1165.63L946.57,1165.63z M1001.87,1174.97l312.69,52.15c7.59,1.26,13.79,8.51,13.79,16.09
			l0,0c0,7.59-6.21,12.76-13.79,11.49l-312.69-52.14c-7.59-1.26-13.79-8.51-13.79-16.09l0,0
			C988.08,1178.88,994.28,1173.71,1001.87,1174.97L1001.87,1174.97z M946.57,1106.44c7.68,1.28,13.91,8.55,13.91,16.23
			c0,7.69-6.23,12.87-13.91,11.59c-7.69-1.28-13.91-8.55-13.91-16.23C932.66,1110.35,938.89,1105.16,946.57,1106.44L946.57,1106.44z
			 M1001.87,1115.79c-7.59-1.27-13.79,3.91-13.79,11.49l0,0c0,7.59,6.21,14.83,13.79,16.09l312.69,52.14
			c7.59,1.26,13.79-3.91,13.79-11.49l0,0c0-7.59-6.21-14.83-13.79-16.09L1001.87,1115.79L1001.87,1115.79z M946.57,1047.26
			c7.68,1.28,13.91,8.55,13.91,16.23c0,7.68-6.23,12.87-13.91,11.59c-7.69-1.28-13.91-8.55-13.91-16.23
			C932.66,1051.17,938.89,1045.98,946.57,1047.26L946.57,1047.26z M1001.87,1056.6l312.69,52.14c7.59,1.27,13.79,8.51,13.79,16.09
			l0,0c0,7.59-6.21,12.76-13.79,11.49l-312.69-52.15c-7.59-1.27-13.79-8.51-13.79-16.09l0,0
			C988.08,1060.5,994.28,1055.33,1001.87,1056.6L1001.87,1056.6z M1001.87,997.41c-7.59-1.26-13.79,3.91-13.79,11.49l0,0
			c0,7.59,6.21,14.83,13.79,16.09l312.69,52.15c7.59,1.26,13.79-3.91,13.79-11.49l0,0c0-7.59-6.21-14.83-13.79-16.09L1001.87,997.41
			z" class="color9488c0 svgShape" clip-rule="evenodd"/><path fill-rule="evenodd" d="M852.56,1630.04c-47.25-0.76-82.57-1.32-98.89-6.48c-17.6-5.56-13.96-16.29-3.85-33.47
			c44.54,20.49,32.67-4.21,53.5-1.07c14.64,11.78,36.32,19.68,65.02,23.69C880.49,1621.67,875.55,1629.65,852.56,1630.04z" class="color071023 svgShape" clip-rule="evenodd"/><path fill="#cecece" fill-rule="evenodd" d="M791.86,910.05H499.89c-5.75,0-11.7,4.71-13.21,10.46l-51.95,197.82c-1.51,5.75,1.96,10.46,7.71,10.46h291.97
			c5.75,0,11.7-4.71,13.21-10.46l51.95-197.82C801.09,914.76,797.62,910.05,791.86,910.05z" class="colorccced0 svgShape" clip-rule="evenodd"/><path fill="#898989" fill-rule="evenodd" d="M480.44,915.76l-35.27,134.29c-42.36-20.66-93.38-53.83-146.89-96.38c-1.44-19.15-3.22-34.42-5.35-45.81
			c4.29-8.51,9-17.61,14.12-27.3c-49.38-0.31-79.5-10.93-90.35-31.86c13.21-38.65,31.68-78.12,55.4-118.41
			c16.59-24.54,49.09-38.96,97.48-43.27c5.66,64.9,105.2,61.57,81.79,5.71c36.12,9.69,66.71,27.6,91.79,53.73
			c21.58,53.15,34.73,90.24,39.47,111.28c-23.42,16.4-45.61,27.02-66.57,31.86c-0.95,4.6-1.7,9.83-2.26,15.69h-20.16
			C487.9,905.3,481.96,910,480.44,915.76z" class="colorf59b1d svgShape" clip-rule="evenodd"/><path fill="#888" fill-rule="evenodd" d="M445.18,1050.05l35.27-134.29c1.51-5.75,7.45-10.46,13.21-10.46h20.16h271.81c5.76,0,16,7.43,14.3,13.13
			c0.28-4.76-3.01-8.37-8.05-8.37H499.89c-5.75,0-11.69,4.71-13.21,10.46l-51.95,197.82c-0.91,3.45-0.02,6.52,2.07,8.43
			c-4.81-3.1-9.39-9.1-8.32-13.19L445.18,1050.05z" class="color85868b svgShape" clip-rule="evenodd"/><path fill="#888" fill-rule="evenodd" d="M442.45,1128.79h291.97c1.07,0,2.15-0.16,3.2-0.46c-5.81,15.06-21.6,12.83-27.77,12.78H363.7
			c-18.76-0.79-18.27-13.95-18.51-26.63h83.16c-0.27,4.02,4,9.4,8.46,12.28C438.21,1128.04,440.15,1128.79,442.45,1128.79z" class="color85868b svgShape" clip-rule="evenodd"/><path fill="#adadad" fill-rule="evenodd" d="M483.32,991.4c31.3,15.83,68.32,20.7,106.39,22.64c-0.42,1.37-0.75,2.77-0.98,4.2
			c-2.54,16.05,8.77,29.7,25.11,29.7c15.39,0,29.35-12.19,31.75-27.34c0.26-1.64,0.37-3.26,0.35-4.85
			c39.52,1.06,77.71,3.23,109.29,15.59l-21.72,82.7h-282.4L483.32,991.4z" class="colora9abb1 svgShape" clip-rule="evenodd"/><path fill="#909090" fill-rule="evenodd" d="M620.16,1000.47c-10.47,0-20.29,8.48-21.95,18.95c-1.66,10.46,5.48,18.95,15.95,18.95
			c10.46,0,20.29-8.48,21.95-18.95C637.76,1008.96,630.62,1000.47,620.16,1000.47z" class="color8d8f94 svgShape" clip-rule="evenodd"/><path fill="#898989" fill-rule="evenodd" d="M284.22,1080.6c5.83-17.76,10.01-36.18,12.56-55.27c39.32,15.23,84.28,29.91,141.13,52.37l-7.68,29.24
			C344.33,1109.74,295.66,1100.96,284.22,1080.6z" class="colorf59b1d svgShape" clip-rule="evenodd"/><path fill="#c1c1c1" fill-rule="evenodd" d="M437.92,1077.69c-56.85-22.46-101.81-37.14-141.13-52.37c-34.65-13.42-64.92-27.25-95.07-47.2
			c1.26-38.5,6.98-75.76,22.92-118.94c14.63,13.99,42.11,21.12,82.42,21.38c-11.67,22.06-21.18,41.09-28.53,57.06
			c60.64,50.28,119.1,89.23,166.64,112.42L437.92,1077.69z" class="colorfab688 svgShape" clip-rule="evenodd"/><path fill="#c1c1c1" fill-rule="evenodd" d="M575.07,862.87c4.38,15.3,8.44,29.44,12.17,42.43h-73.43c0.55-5.86,1.3-11.09,2.25-15.69
			C534.75,885.29,554.42,876.38,575.07,862.87z" class="colorfab688 svgShape" clip-rule="evenodd"/><path fill-rule="evenodd" d="M753.34,1574.53c-43.43-157.5-58.96-268.13-46.6-331.91c-24.68,3.52-49.47,4.62-74.36,3.32
			c3.78-17.04,7.59-34.12,11.46-51.42c-0.44-23.49-12.44-40.91-55-53.42h121.01c4.11,0.04,12.51,1.04,19.37-2.77
			c38.98,11.13,58.02,29.52,64.53,51.98c4.75,61.79-8.09,132.16,2.85,384.69C782.98,1576.42,768.56,1576.26,753.34,1574.53z" class="color071023 svgShape" clip-rule="evenodd"/><path fill="#363636" fill-rule="evenodd" d="M707.98,1141.11h1.89c4.11,0.04,12.51,1.04,19.37-2.77c38.99,11.14,58.02,29.52,64.53,51.98
			c4.75,61.79-8.09,132.16,2.85,384.69c-8.14,0.84-16.55,1.13-25.25,0.86c-22.44-87.78-75.81-303.11-15.68-395.91
			C741.58,1164.99,725.68,1152.04,707.98,1141.11z" class="color1b2452 svgShape" clip-rule="evenodd"/><path fill="#c1c1c1" fill-rule="evenodd" d="M369.67,687.7c7.73-9.85,14.56-18.99,16.55-25.49c-1.56-4.45-3.2-10.06-4.9-16.84
			c-28.98-19.69-32.94-34.25-11.88-43.69c4.24,2.38,9.51,9.71,15.8,21.99c5.02-0.2,8.83-2.77,11.42-7.71
			c-5.99-20.72-9.87-37.55-11.68-50.49c14.28-21.22,47.68-24.25,91.9-18.52c2.05,11.77,3.73,24.24,5.04,37.4
			c7.82,7.2,6.81,33.91-0.39,64.68c3.6,17.5-7.21,27.05-32.41,28.65c-0.36,6.21,2.08,14.13,2.26,15.06h0l0,0.01
			c0.01,0.05,0.04,0.12,0.08,0.19C474.46,748.41,375.95,751.81,369.67,687.7z" class="colorfab688 svgShape" clip-rule="evenodd"/><path fill="#464646" fill-rule="evenodd" d="M476.88,546.95c-44.22-5.73-77.62-2.7-91.9,18.52c1.81,12.93,5.7,29.77,11.68,50.49
			c-2.59,4.93-6.4,7.51-11.43,7.71c-6.29-12.28-11.56-19.61-15.8-21.99c-21.06,9.45-17.1,24,11.89,43.69
			c1.7,6.79,3.34,12.4,4.9,16.84c-26.07-5.84-47.88-29.16-50.95-39.25c-30.41-59.94,3.5-85.26,21.65-94.49
			c8.01-59.36,94.21-6.89,137.4-35.51C511.48,516.68,490.26,546.42,476.88,546.95z" class="color733e19 svgShape" clip-rule="evenodd"/><path fill="#a2a2a2" fill-rule="evenodd" d="M416.36,676.91c12.2,0.99,23.12,1.24,32.76,0.77c-0.25,4.27,0.83,9.36,1.59,12.41
			C435.08,689.68,423.63,685.29,416.36,676.91z" class="colored7d57 svgShape" clip-rule="evenodd"/><path fill="#424242" fill-rule="evenodd" d="M549.94,1234.77H286.51c-9.41,0-17.12,7.7-17.12,17.12v0c0,9.41,7.7,17.12,17.12,17.12h263.43
			c9.41,0,17.12-7.7,17.12-17.12v0C567.06,1242.47,559.35,1234.77,549.94,1234.77z" class="color712c14 svgShape" clip-rule="evenodd"/><path fill="#646464" fill-rule="evenodd" d="M302.22,1558.97c12.6-12.6,29.98-20.42,49.12-20.42h45.31h88.44c19.14,0,36.53,7.82,49.12,20.42
			c12.59,12.6,20.41,29.99,20.41,49.12v14.03h5.36v17.36h-5.36h-28.75h-5.36v-17.36h5.36v-14.03c0-11.2-4.59-21.39-11.99-28.79
			c-7.4-7.4-17.59-11.99-28.79-11.99h-88.44h-45.31c-11.2,0-21.39,4.59-28.79,11.99c-7.4,7.4-11.99,17.59-11.99,28.79v14.03h5.36
			v17.36h-5.36h-28.76h-5.36v-17.36h5.36v-14.03C281.81,1588.96,289.63,1571.57,302.22,1558.97z" class="colora14527 svgShape" clip-rule="evenodd"/><rect width="28.76" height="269.55" x="403.85" y="1269" fill="#646464" fill-rule="evenodd" class="colora14527 svgShape" clip-rule="evenodd"/><path fill="#363636" fill-rule="evenodd" d="M326.08,1233.69c-50.94-18.29-57.87-69.03-35.46-145.7c18.41,15.07,64.95,21.38,139.62,18.94l-1.74,6.64
			c-0.08,0.29-0.13,0.59-0.15,0.9h-83.16c0.24,12.68-0.24,25.84,18.51,26.63h225.15c42.55,12.51,54.56,29.93,55,53.42
			c-26.94,120.4-50.92,230.79-83.57,383.35c-11,6.17-26.07,5.7-45.18-1.42c-15.32-147.94-11.12-255.53,12.6-322.76
			C464.71,1253.93,397.5,1245.35,326.08,1233.69z" class="color1b2452 svgShape" clip-rule="evenodd"/><path fill-rule="evenodd" d="M326.08,1233.69c-50.94-18.29-57.87-69.03-35.46-145.7c3.91,3.2,9.11,6.01,15.56,8.42
			c-18.56,78.78,1.62,121.95,61.49,126.09c69.85,10.36,127.75,15.34,173.71,14.94c-20.26,131.34-23.73,245.87-10.42,343.56
			c-4.93-0.94-10.22-2.46-15.86-4.56c-15.31-147.94-11.11-255.53,12.6-322.76C464.71,1253.93,397.5,1245.35,326.08,1233.69z" class="color071023 svgShape" clip-rule="evenodd"/><path fill="#c1c1c1" fill-rule="evenodd" d="M792.06,1575.42c1.27,4.75,3.32,9.21,6.18,13.4c-13.63,1.28-8.38,18.83-45.19,2.73
			c1.57-4.64,2.45-10.23,2.64-16.75C768.36,1576.1,780.49,1576.31,792.06,1575.42z" class="colorfab688 svgShape" clip-rule="evenodd"/><path fill-rule="evenodd" d="M560.17,1657.69c-25.09-10.35-28.85-27.2-42.64-33.64c-13.89-6.48-15.48-18.04-1.9-30.59
			c10.03,8.02,22.48,17.87,29.07,12.65c4.4-3.48,19.33-3.25,22.29,1.83c13,30.23,31.09,20.65,34.66,34.4
			C602.06,1660.65,575.96,1664.2,560.17,1657.69z" class="color071023 svgShape" clip-rule="evenodd"/><path fill="#c1c1c1" fill-rule="evenodd" d="M555.89,1579.9c-0.22,8.04,0.88,16.1,3.3,24.2c-5.37-0.84-11.84-0.09-14.49,2
			c-6.11,4.84-17.24-3.27-26.83-10.86c1.56-4.34,2.61-9.93,3.15-16.77C535.03,1582.86,546.65,1583.34,555.89,1579.9z" class="colorfab688 svgShape" clip-rule="evenodd"/><path fill="#878787" fill-rule="evenodd" d="M307.06,880.56c6.48-11.73,13.35-27.51,20.58-47.34c-3.89,23.09-3.69,39.72-9.97,58.7
			c5.07,26.85,7.17,54.24,6.65,81.86c-8.59-6.44-17.28-13.15-26.04-20.12c-1.44-19.15-3.22-34.42-5.35-45.81
			C297.23,899.35,301.94,890.25,307.06,880.56L307.06,880.56z M531.16,885.2c-5.1,1.8-10.14,3.27-15.1,4.41
			c1.89-29.39,3.12-53.68,3.7-72.86C525.42,845.08,529.22,867.9,531.16,885.2L531.16,885.2z M284.22,1080.6
			c5.83-17.76,10.01-36.18,12.56-55.27c7.28,2.82,14.76,5.62,22.47,8.45c-3.09,20.9-7.51,41.81-13.12,62.61
			C295.13,1092.28,287.83,1087.01,284.22,1080.6z" class="colorea7924 svgShape" clip-rule="evenodd"/><ellipse cx="1578.43" cy="1612.57" fill="#d4d4d4" fill-rule="evenodd" class="colord1c6e2 svgShape" clip-rule="evenodd" rx="181.32" ry="40.8"/><path fill="#5c5c5c" fill-rule="evenodd" d="M1653.16,1483.68h-142.22c-6.39,0-11.61,5.22-11.61,11.61v32.65c0,6.39,5.22,11.61,11.61,11.61h142.22
			c6.39,0,11.61-5.22,11.61-11.61v-32.65C1664.77,1488.9,1659.55,1483.68,1653.16,1483.68z" class="color3f4979 svgShape" clip-rule="evenodd"/><polygon fill="#5c5c5c" fill-rule="evenodd" points="1651.89 1539.56 1512.21 1539.56 1525.92 1611.75 1638.18 1611.75" class="color3f4979 svgShape" clip-rule="evenodd"/><polygon fill="#363636" fill-rule="evenodd" points="1512.21 1539.56 1651.89 1539.56 1649.41 1552.62 1514.69 1552.62" class="color1b2452 svgShape" clip-rule="evenodd"/><path fill="#7a7a7a" fill-rule="evenodd" d="M1568.67,1200.68c-23.75,65.76-26.5,143.53-8.27,233.29c4.61,13.61,8.12,28.49,10.53,44.63
			c0.45,1.69,0.91,3.38,1.37,5.08h8.68c2.07-33.54,2.76-67.63,2.07-102.28c-1.05-52.48-5.27-106.28-12.66-161.39
			c-0.19-1.48,0.85-2.84,2.34-3.03c1.48-0.19,2.84,0.85,3.04,2.33c7.42,55.28,11.65,109.27,12.71,161.98
			c0.69,34.7,0.01,68.83-2.05,102.38h6.12c3.14-30.19,9.63-56.94,19.47-80.25C1623.12,1324.5,1608.67,1256.91,1568.67,1200.68z" class="color5a53a2 svgShape" clip-rule="evenodd"/><path fill="#a4a4a4" fill-rule="evenodd" d="M1707.72,1306.35c-3.66,59.06-34.03,118.17-91.11,177.33h-12.48c9.22-21.41,19.58-42.69,31.08-63.84
			c18.56-34.13,40.09-67.93,64.6-101.41c0.66-0.9,0.28-2.19-0.84-2.87c-1.12-0.68-2.56-0.5-3.21,0.4
			c-24.59,33.59-46.2,67.52-64.84,101.79c-11.88,21.85-22.55,43.83-32,65.93h-6.38C1601.8,1394.65,1640.19,1335.54,1707.72,1306.35z
			" class="color9488c0 svgShape" clip-rule="evenodd"/><path fill="#bababa" fill-rule="evenodd" d="M1460.35,1333.64c3.35,52.66,28.97,102.67,76.85,150.04h19.54c-7.79-16.31-16.35-32.43-25.67-48.37
			c-18.1-30.96-39.11-61.25-63.01-90.87c-0.64-0.8-0.27-2.09,0.82-2.89c1.09-0.79,2.49-0.79,3.13,0.01
			c23.98,29.72,45.06,60.12,63.24,91.21c9.81,16.78,18.78,33.75,26.9,50.91h9.51C1560.99,1403.37,1523.9,1353.35,1460.35,1333.64z" class="colorb4a5d0 svgShape" clip-rule="evenodd"/><path fill="#4c4c4c" fill-rule="evenodd" d="M1469.45,483.26c46.39,7.74,84,51.62,84,98.01c0,46.39-37.61,77.73-84,70c-46.39-7.74-84-51.62-84-98.01
			C1385.44,506.86,1423.05,475.52,1469.45,483.26z" class="color2b2870 svgShape" clip-rule="evenodd"/><path fill="#eaeaea" fill-rule="evenodd" d="M1469.45,492.24c41.43,6.91,75.01,46.1,75.01,87.53c0,41.43-33.59,69.41-75.01,62.51
			c-41.43-6.91-75.02-46.09-75.02-87.52C1394.43,513.32,1428.02,485.33,1469.45,492.24z" class="colorede4f1 svgShape" clip-rule="evenodd"/><path fill="#4c4c4c" fill-rule="evenodd" d="M1448.29,572.54l10.32,1.72c-10.29-5.97-17.54-17.32-17.54-29.15c0-15.67,12.7-26.25,28.37-23.64
			c15.67,2.61,28.37,17.43,28.37,33.1c0,11.83-7.25,20.76-17.54,23.3l10.32,1.72c14.46,2.41,26.3,16.22,26.3,30.68v22.99
			c-12.93,8.42-29.45,12.01-47.45,9c-18.01-3-34.52-12.1-47.45-24.83v-22.99C1421.99,579.99,1433.83,570.13,1448.29,572.54z" class="color2b2870 svgShape" clip-rule="evenodd"/></svg>